<svg id="svg-text" version="1.1" xmlns="http://www.w3.org/2000/svg" xmlns:xlink="http://www.w3.org/1999/xlink" width="400" height="228.57142857142858" viewBox="0, 0, 400,228.57142857142858">
    <g id="svgg">
        <path id="path0" d="M237.953 83.010 C 234.445 85.149,231.866 92.952,234.667 92.952 C 235.086 92.952,235.429 92.148,235.429 91.166 C 235.429 87.639,237.842 86.514,243.041 87.618 C 245.566 88.153,249.341 88.389,251.430 88.142 L 255.230 87.692 253.620 89.370 C 251.292 91.797,249.947 95.372,249.403 100.576 L 248.926 105.143 246.089 105.143 C 244.374 105.143,242.460 105.767,241.246 106.722 C 238.970 108.512,238.554 110.142,240.571 109.361 C 245.321 107.524,249.045 109.074,250.300 113.411 C 250.786 115.090,250.667 115.169,248.406 114.672 C 245.944 114.131,241.524 115.411,241.524 116.664 C 241.524 117.032,242.842 117.333,244.453 117.333 C 254.014 117.333,251.061 128.125,239.302 136.164 C 237.557 137.356,241.022 136.882,245.602 135.301 C 256.636 131.493,266.490 131.444,273.657 135.162 C 278.519 137.685,277.940 137.798,283.365 133.265 C 287.886 129.487,289.263 126.457,285.039 129.580 L 282.921 131.146 280.318 129.634 C 274.990 126.541,265.188 125.376,259.299 127.137 C 257.132 127.784,257.418 127.354,262.065 122.971 C 269.953 115.530,270.817 112.972,270.167 99.000 C 269.588 86.556,270.237 84.485,275.048 83.428 C 278.587 82.651,278.530 81.524,274.952 81.524 C 264.835 81.524,262.476 85.412,262.476 102.095 C 262.476 117.015,262.051 118.577,256.223 125.027 C 252.085 129.607,250.165 130.344,252.889 126.306 C 257.107 120.052,258.129 114.158,257.221 101.312 C 256.515 91.315,257.108 88.907,261.281 84.844 C 264.319 81.887,263.480 81.215,258.835 82.885 C 255.506 84.082,254.973 84.079,250.121 82.836 C 243.507 81.141,240.959 81.177,237.953 83.010 M91.196 84.215 C 88.487 86.598,85.313 86.644,71.123 84.505 C 55.727 82.184,50.652 82.862,43.537 88.191 C 41.201 89.941,37.359 96.555,37.341 98.857 C 37.327 100.597,38.883 99.841,39.691 97.716 C 41.541 92.849,46.554 89.905,52.990 89.905 L 57.280 89.905 53.393 92.977 C 48.579 96.782,44.696 102.592,43.007 108.514 C 34.932 136.829,80.020 149.843,93.377 123.053 C 95.373 119.048,94.633 117.165,92.368 120.488 C 89.325 124.951,82.009 130.206,78.751 130.269 C 78.129 130.281,77.850 125.014,77.763 111.619 L 77.643 92.952 82.440 92.950 C 88.468 92.946,91.711 91.143,93.707 86.685 C 95.809 81.988,94.826 81.021,91.196 84.215 M108.297 86.577 L 104.975 88.567 101.961 86.873 C 98.323 84.829,97.350 85.382,99.870 88.063 C 102.567 90.932,103.218 127.849,100.621 130.614 L 99.071 132.264 102.246 134.703 C 106.137 137.694,106.133 137.694,109.830 134.765 C 112.582 132.586,112.734 132.279,111.654 131.086 C 110.707 130.040,110.482 127.705,110.504 119.178 L 110.532 108.571 113.326 106.450 C 119.087 102.078,120.356 104.589,120.365 120.381 C 120.376 137.386,119.176 140.312,110.506 144.429 C 106.079 146.531,104.738 147.810,106.959 147.810 C 109.295 147.810,120.855 141.280,123.886 138.249 C 127.910 134.226,128.194 132.614,127.865 115.667 L 127.619 102.953 125.381 100.619 C 122.444 97.556,122.307 97.584,115.940 102.531 L 110.476 106.776 110.476 98.367 C 110.476 90.047,110.501 89.929,112.841 87.265 C 115.900 83.781,113.555 83.426,108.297 86.577 M322.095 87.774 L 317.714 90.972 317.714 95.391 C 317.714 99.302,317.539 99.810,316.190 99.810 C 315.073 99.810,314.667 100.317,314.667 101.714 C 314.667 103.111,315.073 103.619,316.190 103.619 C 318.231 103.619,318.583 127.784,316.571 129.796 C 314.932 131.435,315.032 131.583,319.184 133.687 C 321.250 134.734,323.156 135.939,323.420 136.366 C 324.325 137.832,326.270 137.139,329.990 134.024 C 333.832 130.807,335.130 128.421,331.878 130.552 C 330.172 131.670,329.901 131.645,328.068 130.203 L 326.095 128.651 326.095 116.135 L 326.095 103.619 329.143 103.619 C 331.886 103.619,332.190 103.429,332.190 101.714 C 332.190 100.000,331.886 99.810,329.143 99.810 L 326.095 99.810 326.095 95.319 L 326.095 90.829 329.269 91.542 C 332.837 92.343,333.683 91.713,333.703 88.235 C 333.716 85.801,333.342 85.514,329.451 84.982 C 326.842 84.625,325.938 84.968,322.095 87.774 M300.937 88.438 C 299.476 93.865,300.326 94.494,303.434 90.286 C 306.850 85.661,306.890 85.333,304.029 85.333 C 302.035 85.333,301.676 85.693,300.937 88.438 M61.714 107.050 L 61.714 123.344 59.802 125.481 L 57.889 127.619 54.582 124.052 C 46.796 115.653,48.079 100.851,57.317 92.505 C 61.603 88.633,61.714 89.003,61.714 107.050 M76.013 111.822 L 76.217 131.048 70.846 131.048 C 67.664 131.048,64.320 130.558,62.642 129.847 L 59.810 128.647 64.200 124.705 C 69.738 119.733,70.095 118.449,70.095 103.554 L 70.095 91.668 72.952 92.133 L 75.810 92.597 76.013 111.822 M137.767 102.103 C 133.763 105.875,133.742 105.919,136.000 105.723 L 138.286 105.524 138.752 118.095 C 139.311 133.180,138.943 131.204,141.793 134.450 C 144.780 137.851,144.400 137.913,150.997 132.948 L 156.571 128.752 157.057 131.093 C 157.575 133.589,160.436 137.143,161.928 137.143 C 163.418 137.143,169.973 131.774,169.472 130.964 C 169.171 130.476,168.664 130.496,168.033 131.020 C 164.564 133.899,162.758 109.076,166.172 105.442 L 167.968 103.531 164.936 100.937 C 161.203 97.743,161.083 97.743,157.359 100.929 C 154.448 103.420,154.386 103.569,155.667 104.986 C 156.818 106.257,156.969 107.821,156.785 116.544 L 156.571 126.632 153.263 129.027 L 149.955 131.422 148.501 129.626 C 146.394 127.024,146.286 105.645,148.375 104.476 C 149.874 103.637,149.976 103.802,145.990 100.637 C 142.233 97.654,142.551 97.597,137.767 102.103 M186.286 100.241 C 184.190 101.251,181.362 102.290,180.000 102.552 L 177.524 103.027 177.524 116.873 L 177.524 130.719 179.619 131.993 C 180.771 132.693,182.726 134.092,183.962 135.102 L 186.209 136.938 181.870 141.802 C 179.483 144.478,177.529 146.941,177.527 147.276 C 177.524 147.821,185.720 147.334,187.926 146.659 C 188.409 146.511,191.221 146.725,194.175 147.134 C 200.125 147.959,203.747 146.795,208.190 142.631 C 210.882 140.108,210.876 140.059,207.054 134.194 L 203.823 129.234 203.538 118.232 L 203.254 107.229 206.770 107.757 L 210.286 108.284 210.286 104.032 L 210.286 99.780 206.708 101.599 L 203.131 103.417 197.777 100.851 C 191.518 97.851,191.273 97.838,186.286 100.241 M295.239 100.885 C 292.349 103.330,292.259 103.535,293.473 104.876 C 294.544 106.059,294.792 108.422,294.995 119.377 C 295.326 137.224,296.979 139.702,304.812 134.095 C 308.504 131.452,309.804 129.617,307.238 130.670 C 303.621 132.154,303.632 132.186,303.409 118.939 C 303.225 107.948,303.359 106.272,304.527 104.982 C 305.804 103.571,305.740 103.417,302.832 100.929 C 299.091 97.728,298.973 97.727,295.239 100.885 M344.762 101.346 L 338.667 104.276 338.237 117.090 C 338.000 124.138,337.540 130.643,337.215 131.545 C 336.684 133.017,337.040 133.311,340.692 134.420 C 342.931 135.100,345.790 136.104,347.048 136.652 C 349.412 137.682,362.546 130.416,361.469 128.673 C 361.249 128.318,359.714 128.924,358.058 130.020 L 355.046 132.013 351.047 130.497 L 347.048 128.981 346.859 125.253 L 346.671 121.524 355.028 115.886 L 363.385 110.247 361.009 107.505 C 351.795 96.868,353.070 97.352,344.762 101.346 M354.350 110.595 L 355.811 112.618 352.191 115.206 C 350.200 116.629,348.143 118.053,347.619 118.370 C 346.880 118.818,346.667 117.107,346.667 110.747 L 346.667 102.548 349.778 105.560 C 351.489 107.216,353.547 109.482,354.350 110.595 M190.857 105.381 L 195.429 107.051 195.643 116.398 L 195.857 125.745 193.458 128.729 L 191.060 131.713 188.102 129.755 L 185.143 127.798 185.143 115.708 C 185.143 109.059,185.400 103.639,185.714 103.664 C 186.029 103.689,188.343 104.462,190.857 105.381 M200.860 138.534 C 204.597 142.806,204.755 144.113,201.337 142.489 C 200.182 141.940,196.054 141.284,192.161 141.031 L 185.085 140.571 190.257 134.746 L 195.429 128.920 196.388 131.719 C 196.916 133.259,198.928 136.325,200.860 138.534 " stroke="none" fill="black" fill-rule="evenodd"/>
    </g>
</svg>
